<svg xmlns="http://www.w3.org/2000/svg" version="1.1" xmlns:xlink="http://www.w3.org/1999/xlink" xmlns:svgjs="http://svgjs.com/svgjs" width="100%" height="100%" viewBox="0 0 1000 600"><rect width="1000" height="600" x="0" y="0" fill=" #B22222"/><g><rect width="333.3333333333333" height="333.3333333333333" rx="13.333333333333334" ry="13.333333333333334" y="220.69228965632513" fill="#130000" transform="matrix(0.629817930930993,0,0,0.6298179309309929,0,56.034388491283764)" x="198.47010803222653"/><path d="M232.27962373381408 462.3589423300389L232.27962373381408 312.35894687134504L279.6308127764296 312.35894687134504Q297.1903360543322 312.35894687134504 307.279621463161 321.34704183732225Q317.33914496812895 330.3648987071604 317.33914496812895 348.7875171970278L317.33914496812895 348.7875171970278Q317.33914496812895 357.1506121819272 314.5415260052089 364.6506119548619Q311.77366894614966 372.15061172779656 303.20224063422427 377.9244210768019L303.20224063422427 377.9244210768019L302.99390730719836 378.37084963471466L302.99390730719836 378.5791829617406Q312.3986689272276 382.8648971177033 318.737954449589 392.50775396861934Q325.0474780680896 402.15061081953536 325.0474780680896 417.5672770194567L325.0474780680896 417.5672770194567Q325.0474780680896 435.989895509324 315.0772402747042 449.17441891968144Q305.13676438517973 462.3589423300389 281.56533652738494 462.3589423300389L281.56533652738494 462.3589423300389L232.27962373381408 462.3589423300389ZM279.1843842185168 373.84704024786515Q291.20819337830096 373.84704024786515 298.0534312662969 367.41846901392114Q304.89866915429286 360.98989777997707 304.89866915429286 348.7875171970278L304.89866915429286 348.7875171970278Q304.89866915429286 323.72799414619044 277.90462235250016 323.72799414619044L277.90462235250016 323.72799414619044L244.2736709897374 323.72799414619044L244.2736709897374 373.84704024786515L279.1843842185168 373.84704024786515ZM281.11890796947216 450.9898950551934Q295.4939075342637 450.9898950551934 303.82724061530223 443.28156195523275Q312.1903356002016 435.5732288552721 312.1903356002016 416.704181807492L312.1903356002016 416.704181807492Q312.1903356002016 401.7041822616226 304.065335846189 393.66846821919256Q295.91057418831554 385.63275417676255 284.77962214435695 385.63275417676255L284.77962214435695 385.63275417676255L244.2736709897374 385.63275417676255L244.2736709897374 450.9898950551934L281.11890796947216 450.9898950551934ZM444.8391411080188 462.3589423300389L423.6189036552313 333.99585097818436L402.3986662024439 462.3589423300389L384.1843810396025 462.3589423300389L348.8272392529103 312.35894687134504L361.68438172079846 312.35894687134504L392.33914269747595 447.56727611119544L415.25580867033193 312.35894687134504L431.98199864013077 312.35894687134504L454.89866461298675 447.56727611119544L485.1367589356123 312.35894687134504L497.99390140350033 312.35894687134504L463.0534262708601 462.3589423300389L444.8391411080188 462.3589423300389Z " fill=" #B22222" transform="matrix(0.629817930930993,0,0,0.6298179309309929,0,56.034388491283764)"/><path d="M615.1367709402579 459.8772244363711L615.1367709402579 314.43666909629025L661.0486605327318 314.43666909629025Q678.0744398284952 314.43666909629025 687.8570486102982 323.15155951547763Q697.6108001390577 331.8953071877087 697.6108001390577 349.75794682173847L697.6108001390577 349.75794682173847Q697.6108001390577 357.8668349270088 694.898218352953 365.1388626940129Q692.214493819892 372.41089046101695 683.9036049433158 378.0091975514883L683.9036049433158 378.0091975514883L683.7016041720102 378.4420563471433L683.7016041720102 378.644057118449Q692.8204961338089 382.79950155673697 698.96709103211 392.14925154288505Q705.0848286773673 401.4990015290331 705.0848286773673 416.4470586056525L705.0848286773673 416.4470586056525Q705.0848286773673 434.3096982396823 695.4176489077389 447.0934613380267Q685.7793263911543 459.8772244363711 662.92438198057 459.8772244363711L662.92438198057 459.8772244363711L615.1367709402579 459.8772244363711ZM660.6158017370768 374.055753884506Q672.2741319667182 374.055753884506 678.9113001667615 367.8225872270739Q685.548468366805 361.58942056964185 685.548468366805 349.75794682173847L685.548468366805 349.75794682173847Q685.548468366805 325.460139758971 659.3749398561991 325.460139758971L659.3749398561991 325.460139758971L626.7662439168556 325.460139758971L626.7662439168556 374.055753884506L660.6158017370768 374.055753884506ZM662.4915231849151 448.8537537736904Q676.4295764050062 448.8537537736904 684.5096072572329 441.37972523538065Q692.6184953625033 433.90569669707094 692.6184953625033 415.6101982673862L692.6184953625033 415.6101982673862Q692.6184953625033 401.0661427333781 684.7404652815823 393.27468441158805Q676.8335779476175 385.483226089798 666.0409653092862 385.483226089798L666.0409653092862 385.483226089798L626.7662439168556 385.483226089798L626.7662439168556 448.8537537736904L662.4915231849151 448.8537537736904ZM735.2118008549555 326.2681428441937Q732.5280763218946 326.2681428441937 730.3349250905758 324.1038488659187Q728.1417738592572 321.91069763459996 728.1417738592572 319.22697310153893L728.1417738592572 319.22697310153893Q728.1417738592572 316.51439131543424 730.2194960784011 314.43666909629025Q732.2972182975452 312.35894687714625 735.2118008549555 312.35894687714625L735.2118008549555 312.35894687714625Q738.1263834123658 312.35894687714625 740.0886766193353 314.3212400841156Q742.0798270793482 316.3123905441286 742.0798270793482 319.22697310153893L742.0798270793482 319.22697310153893Q742.0798270793482 322.11269840590563 740.0021048602043 324.1904206250496Q737.9243826410602 326.2681428441937 735.2118008549555 326.2681428441937L735.2118008549555 326.2681428441937ZM729.1806349688293 459.8772244363711L729.1806349688293 355.78911270786483L740.8389651984705 355.78911270786483L740.8389651984705 459.8772244363711L729.1806349688293 459.8772244363711ZM834.9424673738681 459.8772244363711L795.0617436675207 394.02497299072337L784.2402737761456 403.37472297687145L784.2402737761456 459.8772244363711L772.6108007995479 459.8772244363711L772.6108007995479 314.43666909629025L784.2402737761456 314.43666909629025L784.2402737761456 390.2735300950467L825.7947181590257 351.83566904088246L834.1056070356019 359.9445571461529L803.3726325440966 386.75294522371934Q817.4838292824497 410.21389194822046 848.8805205939593 459.8772244363711L848.8805205939593 459.8772244363711L834.9424673738681 459.8772244363711ZM920.7639379257334 452.60519666936705Q913.2899093874237 457.39550067461573 903.7093013769263 459.8772244363711Q894.1575506194724 462.3589481981264 884.6057998620188 462.3589481981264L884.6057998620188 462.3589481981264Q869.2248839897443 462.3589481981264 860.1925637870766 454.7983479006857Q851.1602435844088 447.2088903502014 851.1602435844088 432.0299752492326L851.1602435844088 432.0299752492326L851.1602435844088 389.43666975678036Q851.1602435844088 372.6128912323226 861.6354264392601 363.26314124617454Q872.1394665471548 353.9133912600265 889.3961038672676 353.9133912600265L889.3961038672676 353.9133912600265Q906.6238839343366 353.9133912600265 916.2910637039649 363.14771223399987Q925.9582434735935 372.41089046101695 925.9582434735935 388.8306674428634L925.9582434735935 388.8306674428634L925.9582434735935 415.8410562917355L862.7897165610066 419.36164116306287L862.7897165610066 432.0299752492326Q862.7897165610066 442.01458480234135 869.2248839897443 447.0068895788957Q875.660051418482 451.9703371024064 886.0486625142021 451.9703371024064L886.0486625142021 451.9703371024064Q900.5927180482104 451.9703371024064 916.1756346917903 443.6594482258304L916.1756346917903 443.6594482258304L920.7639379257334 452.60519666936705ZM914.3287704969957 387.35894753763637Q914.3287704969957 374.48861268016094 906.2198823917252 369.1788781201262Q898.1109942864548 363.89800081313524 889.1652458429182 363.89800081313524L889.1652458429182 363.89800081313524Q877.7377736376261 363.89800081313524 870.2637450993163 370.1311674705672Q862.7897165610066 376.3643341279993 862.7897165610066 389.63867052808604L862.7897165610066 389.63867052808604L862.7897165610066 407.9341689577708L914.3287704969957 405.45244519601545L914.3287704969957 387.35894753763637ZM1043.3495488552303 459.8772244363711L1022.7743274350955 335.415892059036L1002.1991060149612 459.8772244363711L984.538467152237 459.8772244363711L950.2560505363608 314.43666909629025L962.7223838512248 314.43666909629025L992.4453544862017 445.5351696736687L1014.6654393298252 314.43666909629025L1030.883215540366 314.43666909629025L1053.1033003839893 445.5351696736687L1082.3934122233113 314.43666909629025L1094.8597455381755 314.43666909629025L1061.010187717954 459.8772244363711L1043.3495488552303 459.8772244363711ZM1183.393797876145 421.64136415351254Q1183.393797876145 439.100002244931 1173.813189865648 450.52747445022305Q1164.2614391081943 461.95494665551513 1144.9559368219811 461.95494665551513L1144.9559368219811 461.95494665551513Q1125.6215772827245 461.95494665551513 1115.75239674179 450.4120454380484Q1105.8832162008562 438.8980014736253 1105.8832162008562 421.64136415351254L1105.8832162008562 421.64136415351254L1105.8832162008562 394.22697376202905Q1105.8832162008562 374.48861268016094 1115.954397513096 363.98457257226625Q1126.0255788253357 353.50938971741516 1144.9559368219811 353.50938971741516L1144.9559368219811 353.50938971741516Q1163.0205772273166 353.50938971741516 1173.2071875517308 364.4174313679212Q1183.393797876145 375.32547301842726 1183.393797876145 394.22697376202905L1183.393797876145 394.22697376202905L1183.393797876145 421.64136415351254ZM1171.7354676465038 394.22697376202905Q1171.7354676465038 378.644057118449 1164.5788688916746 371.3720293514449Q1157.4222701368453 364.10000158444086 1144.9559368219811 364.10000158444086L1144.9559368219811 364.10000158444086Q1132.0567447114622 364.10000158444086 1124.784716944458 371.3720293514449Q1117.512689177454 378.644057118449 1117.512689177454 394.22697376202905L1117.512689177454 394.22697376202905L1117.512689177454 423.71908637265653Q1117.512689177454 436.1854196875206 1124.9001459566325 443.8903062501797Q1132.2587454827676 451.56633555979505 1144.9559368219811 451.56633555979505L1144.9559368219811 451.56633555979505Q1157.8262716794566 451.56633555979505 1164.78086966298 443.97687800931067Q1171.7354676465038 436.3874204588263 1171.7354676465038 423.71908637265653L1171.7354676465038 423.71908637265653L1171.7354676465038 394.22697376202905ZM1202.901300933664 459.8772244363711L1202.901300933664 355.78911270786483L1214.5596311633058 355.78911270786483L1213.9247715963447 363.06114047486886Q1223.6785231251042 353.9133912600265 1239.4922977930337 353.9133912600265L1239.4922977930337 353.9133912600265Q1245.090604883505 353.9133912600265 1254.8443564122645 355.78911270786483L1254.8443564122645 355.78911270786483L1251.7277730835485 366.3797245748906Q1245.090604883505 364.30200235574654 1237.8185771165008 364.30200235574654L1237.8185771165008 364.30200235574654Q1228.2668263590472 364.30200235574654 1221.3988001346547 367.8225872270739Q1214.5596311633058 371.3720293514449 1214.5596311633058 378.4420563471433L1214.5596311633058 378.4420563471433L1214.5596311633058 459.8772244363711L1202.901300933664 459.8772244363711ZM1268.1475500653946 459.8772244363711L1268.1475500653946 314.43666909629025L1279.7770230419924 314.43666909629025L1279.7770230419924 459.8772244363711L1268.1475500653946 459.8772244363711ZM1312.6165770056855 387.993807104597Q1312.6165770056855 366.1777238035849 1330.2772158684097 358.0688356983145L1330.2772158684097 358.0688356983145Q1338.790105516291 354.11539203133214 1350.6504365172382 354.11539203133214L1350.6504365172382 354.11539203133214Q1358.3264658268536 354.11539203133214 1365.4830645816828 355.9911134791705Q1372.668520589556 357.8668349270088 1377.6608253661107 361.38741979833617L1377.6608253661107 361.38741979833617L1377.6608253661107 314.43666909629025L1389.290298342708 314.43666909629025L1389.290298342708 459.8772244363711L1377.862826137416 460.91608554594313Q1364.35763171298 462.3589481981264 1356.6527451503212 462.3589481981264L1356.6527451503212 462.3589481981264Q1348.9767158407058 462.3589481981264 1342.2241186284878 460.91608554594313Q1335.4715214162698 459.4732228937598 1328.8343532162262 456.12578154069445L1328.8343532162262 456.12578154069445Q1321.3314674248727 452.40319589806137 1316.974022215279 445.1311681310574Q1312.6165770056855 437.8591403640533 1312.6165770056855 427.2685284970276L1312.6165770056855 427.2685284970276L1312.6165770056855 387.993807104597ZM1377.6608253661107 371.57403012275057Q1372.0336610225954 368.4574467940346 1364.7616332555913 366.4951535870652Q1357.4896054885871 364.5040031270522 1350.4195784928888 364.5040031270522L1350.4195784928888 364.5040031270522Q1338.790105516291 364.5040031270522 1331.4315059901564 370.2177392296982Q1324.0440492109774 375.9314753323443 1324.0440492109774 388.59980941851404L1324.0440492109774 388.59980941851404L1324.0440492109774 427.4705292683332Q1324.0440492109774 451.7683363311007 1357.4896054885871 451.7683363311007L1357.4896054885871 451.7683363311007Q1365.3964928225523 451.7683363311007 1377.6608253661107 449.89261488326235L1377.6608253661107 449.89261488326235L1377.6608253661107 371.57403012275057Z " fill="#130000" transform="matrix(0.629817930930993,0,0,0.6298179309309929,0,56.034388491283764)"/></g></svg>